<?xml version="1.0" encoding="UTF-8" standalone="no"?>
<svg width="512" height="512" viewBox="0 0 512 512" xmlns="http://www.w3.org/2000/svg">
  <defs>
    <linearGradient id="blue-gradient" x1="0%" y1="0%" x2="100%" y2="100%">
      <stop offset="0%" stop-color="#2196f3"/>
      <stop offset="100%" stop-color="#0c7cd5"/>
    </linearGradient>
  </defs>
  
  <!-- Background -->
  <rect width="512" height="512" rx="100" fill="url(#blue-gradient)"/>
  
  <g transform="translate(256, 256) scale(0.8)">
    <!-- First file (left) -->
    <g transform="translate(-100, 0) rotate(-10)">
      <rect x="-60" y="-70" width="120" height="140" rx="8" fill="white" opacity="0.9"/>
      <rect x="-40" y="-50" width="80" height="12" rx="3" fill="#2196f3" opacity="0.5"/>
      <rect x="-40" y="-30" width="80" height="12" rx="3" fill="#2196f3" opacity="0.5"/>
      <rect x="-40" y="-10" width="80" height="12" rx="3" fill="#2196f3" opacity="0.5"/>
      <rect x="-40" y="10" width="40" height="12" rx="3" fill="#2196f3" opacity="0.5"/>
    </g>
    
    <!-- Second file (right) -->
    <g transform="translate(100, 0) rotate(10)">
      <rect x="-60" y="-70" width="120" height="140" rx="8" fill="white" opacity="0.9"/>
      <rect x="-40" y="-50" width="80" height="12" rx="3" fill="#2196f3" opacity="0.5"/>
      <rect x="-40" y="-30" width="80" height="12" rx="3" fill="#2196f3" opacity="0.5"/>
      <rect x="-40" y="-10" width="80" height="12" rx="3" fill="#2196f3" opacity="0.5"/>
      <rect x="-40" y="10" width="40" height="12" rx="3" fill="#2196f3" opacity="0.5"/>
    </g>
    
    <!-- Arrows -->
    <g>
      <!-- Left arrow -->
      <path d="M-20,-100 L20,-100 L0,-120 Z" fill="white" opacity="0.9"/>
      <rect x="-5" y="-100" width="10" height="30" rx="3" fill="white" opacity="0.9"/>
      
      <!-- Right arrow -->
      <path d="M-20,100 L20,100 L0,120 Z" fill="white" opacity="0.9"/>
      <rect x="-5" y="70" width="10" height="30" rx="3" fill="white" opacity="0.9"/>
      
      <!-- Bottom-left to top-right arrow -->
      <path d="M-80,40 L-60,60 L-90,60 Z" fill="white" opacity="0.9" transform="rotate(45, -70, 50)"/>
      <rect x="-76" y="50" width="30" height="6" rx="2" fill="white" opacity="0.9" transform="rotate(45, -70, 50)"/>
      
      <!-- Top-left to bottom-right arrow -->
      <path d="M-80,-40 L-60,-60 L-90,-60 Z" fill="white" opacity="0.9" transform="rotate(-45, -70, -50)"/>
      <rect x="-76" y="-56" width="30" height="6" rx="2" fill="white" opacity="0.9" transform="rotate(-45, -70, -50)"/>
      
      <!-- Bottom-right to top-left arrow -->
      <path d="M80,40 L60,60 L90,60 Z" fill="white" opacity="0.9" transform="rotate(-45, 70, 50)"/>
      <rect x="56" y="50" width="30" height="6" rx="2" fill="white" opacity="0.9" transform="rotate(-45, 70, 50)"/>
      
      <!-- Top-right to bottom-left arrow -->
      <path d="M80,-40 L60,-60 L90,-60 Z" fill="white" opacity="0.9" transform="rotate(45, 70, -50)"/>
      <rect x="56" y="-56" width="30" height="6" rx="2" fill="white" opacity="0.9" transform="rotate(45, 70, -50)"/>
    </g>
    
    <!-- Center circle -->
    <circle cx="0" cy="0" r="40" fill="white" opacity="0.9"/>
    
    <!-- Center icon (reload/convert) -->
    <path d="M0,-15 A15,15 0 1,1 -15,0 L-10,0 A10,10 0 1,0 0,-10 Z" fill="#2196f3"/>
    <path d="M0,15 A15,15 0 1,1 15,0 L10,0 A10,10 0 1,0 0,10 Z" fill="#2196f3"/>
    <path d="M-15,0 L-25,-5 L-25,5 Z" fill="#2196f3"/>
    <path d="M15,0 L25,5 L25,-5 Z" fill="#2196f3"/>
  </g>
</svg>