<?xml version="1.0" encoding="UTF-8" standalone="no"?>
<svg width="96" height="96" viewBox="0 0 96 96" xmlns="http://www.w3.org/2000/svg">
  <defs>
    <linearGradient id="bg-gradient" x1="0%" y1="0%" x2="100%" y2="100%">
      <stop offset="0%" stop-color="#2196f3"/>
      <stop offset="100%" stop-color="#0c7cd5"/>
    </linearGradient>
  </defs>
  
  <!-- Background -->
  <rect width="96" height="96" rx="20" fill="url(#bg-gradient)"/>
  
  <!-- Image icon -->
  <rect x="20" y="20" width="56" height="44" rx="4" fill="white" opacity="0.9"/>
  <circle cx="34" cy="34" r="6" fill="#2196f3" opacity="0.7"/>
  <path d="M20 52 L36 40 L48 52 Z" fill="#2196f3" opacity="0.7"/>
  <path d="M44 44 L60 28 L76 44 L76 64 L20 64 L20 56 Z" fill="#2196f3" opacity="0.7"/>
  
  <!-- Convert icon -->
  <circle cx="72" cy="72" r="16" fill="white"/>
  <path d="M72 64 A8 8 0 0 1 80 72 L76 72 A4 4 0 0 0 72 68 Z" fill="#2196f3"/>
  <path d="M72 80 A8 8 0 0 1 64 72 L68 72 A4 4 0 0 0 72 76 Z" fill="#2196f3"/>
  <path d="M64 72 L60 68 L60 76 Z" fill="#2196f3"/>
  <path d="M80 72 L84 76 L84 68 Z" fill="#2196f3"/>
</svg>